<svg width="24" height="24" viewBox="0 0 24 24" fill="none" xmlns="http://www.w3.org/2000/svg">
<path d="M19.187 13.909C19.0892 13.8867 18.9935 13.8559 18.901 13.817C18.8252 13.7839 18.7563 13.7367 18.698 13.678C18.754 13.19 18.698 12.766 18.745 12.286C18.929 10.424 20.1 11.014 21.151 10.709C21.806 10.525 22.461 10.147 22.626 9.37304C21.9187 8.54454 21.1138 7.80451 20.229 7.16904C17.379 5.14104 13.655 4.32904 10.271 4.89204C10.7885 5.79504 11.5693 6.5186 12.509 6.96604C12.509 6.96604 11.592 6.96604 10.806 6.37904C10.576 6.47104 10.114 6.65304 9.893 6.76304C10.7713 7.60733 11.923 8.10891 13.1394 8.17679C14.3558 8.24467 15.5562 7.87437 16.523 7.13304C16.513 7.15004 16.338 7.41804 16.126 8.53304C15.656 10.913 14.3 10.728 12.622 10.129C9.137 8.86504 7.219 10.036 5.477 7.63904C4.97 7.92504 4.657 8.45904 4.657 9.04104C4.657 9.64004 4.988 10.147 5.467 10.424C5.729 10.076 5.847 9.97804 6.303 9.97804C5.597 10.378 5.513 10.728 5.209 11.696C4.841 12.867 4.997 14.066 3.273 14.379C2.36 14.425 2.379 15.043 2.047 15.965C1.632 17.164 1.079 17.643 0 18.777C0.443 19.312 0.904 19.377 1.374 19.183C2.342 18.777 3.089 17.523 3.789 16.712C4.573 15.808 6.454 16.195 7.874 15.31C8.851 14.711 9.331 13.9 8.685 12.526C9.10049 12.9837 9.34773 13.5691 9.386 14.186C11.027 13.973 13.222 15.974 15.222 16.306C15.0234 16.0557 14.8593 15.78 14.734 15.486C14.504 14.932 14.43 14.426 14.476 13.983C14.66 15.08 15.766 16.49 17.546 16.62C17.998 16.656 18.496 16.601 19.012 16.444C19.63 16.26 20.202 16.02 20.884 16.149C21.391 16.242 21.861 16.499 22.156 16.933C22.599 17.578 23.566 17.717 24 16.924C23.023 14.37 20.33 14.204 19.187 13.909Z" fill="currentColor"/>
</svg>
